<?xml version="1.0" encoding="UTF-8"?>
<svg id="Camada_1" data-name="Camada 1" xmlns="http://www.w3.org/2000/svg" viewBox="0 0 309.05 183.42">
  <defs>
    <style>
      .cls-1 {
        fill: #fff;
      }

      .cls-2 {
        fill: #c1cf4e;
      }
    </style>
  </defs>
  <g>
    <path class="cls-2" d="M50.14,43.75h18.34c1.7,0,1.88,1,.61,2.14l-8.51,7.6c-.48.39-.57.79-.31,1.27.26.44.65.65,1.18.48l3.45-1c.57-.17.96.13.96.74v10.3c0,.61-.39.92-.96.74l-3.45-1c-.52-.17-1.18-.09-1.18.48v9.26c0,1.14-.61,1.75-1.75,1.75h-8.38c-1.14,0-1.75-.61-1.75-1.75v-29.25c0-1.14.61-1.75,1.75-1.75Z"/>
    <path class="cls-2" d="M73.85,43.75h18.34c1.7,0,1.92.96.61,2.14l-8.12,7.33c-.74.7-.96,1.05-.7,1.53.26.44.65.65,1.44.44l3.19-.96c.57-.17.96.13.96.74v10.3c0,.61-.39.92-.96.74l-3.19-.96c-.79-.22-1.18-.04-1.44.44-.26.52-.04.83.7,1.53l8.12,7.33c1.31,1.18,1.09,2.14-.61,2.14h-18.34c-1.14,0-1.75-.61-1.75-1.75v-29.25c0-1.14.61-1.75,1.75-1.75Z"/>
    <path class="cls-2" d="M93.06,69.77c-.17-.44-.09-.79.22-1.18l6.11-7.42c.7-.87.48-1.75-.22-2.44-1.62-1.66-2.62-3.89-2.62-6.37,0-4.98,4.06-9.04,9.08-9.04,2.14,0,4.1.74,5.63,2.01.44.35.48.79.13,1.22l-5.41,6.55c-.87,1.05-.48,1.79.83,2.18,4.76,1.27,8.47,5.54,8.47,10.61,0,6.11-5.37,11.05-11.44,11.05-4.72,0-9.08-3.01-10.78-7.16Z"/>
    <path class="cls-2" d="M131,76.5h-8.29c-1.14,0-1.75-.61-1.75-1.75v-26.02c0-1.14-.61-1.75-1.75-1.75h-4.37c-.57,0-.87-.31-.87-.87v-1.48c0-.57.31-.87.87-.87h24.01c.57,0,.87.31.87.87v1.48c0,.57-.31.87-.87.87h-4.37c-1.13,0-1.75.61-1.75,1.75v26.02c0,1.14-.61,1.75-1.75,1.75Z"/>
    <path class="cls-2" d="M151.57,44.63l13.18,29.82c.52,1.22,0,2.05-1.31,2.05h-26.11c-1.31,0-1.83-.83-1.31-2.05l13.18-29.82c.61-1.4,1.75-1.4,2.36,0Z"/>
    <path class="cls-2" d="M180.47,74.75v-29.25c0-1.14.61-1.75,1.75-1.75h8.21c9.78,0,16.46,7.42,16.46,16.37s-6.68,16.37-16.46,16.37h-8.21c-1.14,0-1.75-.61-1.75-1.75Z"/>
    <path class="cls-2" d="M212.13,43.75h18.34c1.7,0,1.92.96.61,2.14l-8.12,7.33c-.74.7-.96,1.05-.7,1.53.26.44.65.65,1.44.44l3.19-.96c.57-.17.96.13.96.74v10.3c0,.61-.39.92-.96.74l-3.19-.96c-.79-.22-1.18-.04-1.44.44-.26.52-.04.83.7,1.53l8.12,7.33c1.31,1.18,1.09,2.14-.61,2.14h-18.34c-1.14,0-1.75-.61-1.75-1.75v-29.25c0-1.14.61-1.75,1.75-1.75Z"/>
  </g>
  <path class="cls-2" d="M254.28,102.32l-67,3.46-59.85-.33-2,7.81,3.85,30.44,54.1-6.12,70.62.11,4.14-13.62-3.86-21.75ZM147.47,132.84c-6.15.3-10.57-4.18-10.84-9.79s3.7-10.5,9.85-10.79,10.57,4.18,10.84,9.79c.27,5.61-3.7,10.5-9.85,10.79ZM172.22,130.84c.02.35-.16.54-.51.56l-10.69.52c-.7.03-1.09-.32-1.12-1.02l-.86-17.91c-.03-.7.32-1.09,1.02-1.12l5.08-.25c.7-.03,1.09.32,1.12,1.02l.77,15.93c.03.7.43,1.05,1.12,1.02l3.48-.17c.35-.02.54.16.56.51l.04.91ZM180.75,117.62c.17.26.42.38.9.22l1.92-.68c.34-.12.59.05.61.43l.3,6.31c.02.37-.21.57-.57.48l-1.98-.49c-.49-.11-.72,0-.87.31-.14.33,0,.51.47.92l5.19,4.25c.84.68.73,1.28-.31,1.33l-11.23.54c-.7.03-1.09-.32-1.12-1.02l-.86-17.91c-.03-.7.32-1.09,1.02-1.12l11.23-.54c.68.04.85.18.88.3.14.5-2.04,1.08-4.1,3.2,0,0-1.75,1.8-1.55,3.26.02.13.08.23.08.23ZM195.81,129.16c.03.7-.32,1.09-1.02,1.12l-5.08.25c-.7.03-1.09-.32-1.12-1.02l-.86-17.91c-.03-.7.32-1.09,1.02-1.12l5.08-.25c.7-.03,1.09.32,1.12,1.02l.86,17.91ZM210.72,129.46c-1.92-2.46-3.95-3.58-5.19-4.11-.41-.18-4.11-1.73-4.97-.59-.11.15-.15.31-.17.43l.21,4.28c.02.35-.16.54-.51.56l-1.02.05c-.35.02-.54-.16-.56-.51l-.89-18.45c-.03-.7.32-1.09,1.02-1.12l4.89-.24c3.9-.19,7.21,2.84,7.4,6.74.11,2.19-.79,4.22-2.3,5.6-.23.23-.27.44-.13.73l3.09,5.72c.44.78-.05,1.29-.87.9ZM223.2,129.18c-6.15.3-10.57-4.18-10.84-9.79-.27-5.61,3.7-10.5,9.85-10.79s10.57,4.18,10.84,9.79-3.7,10.5-9.85,10.79ZM240.47,128.35c-2.89.14-5.65-1.58-6.82-4.07-.12-.26-.08-.48.1-.73l3.52-4.73c.4-.56.24-1.08-.21-1.49-1.04-.97-1.72-2.3-1.79-3.83-.15-3.05,2.22-5.65,5.29-5.8,1.31-.06,2.53.33,3.51,1.06.28.2.32.47.12.74l-3.12,4.17c-.5.67-.24,1.11.57,1.31,2.95.63,5.35,3.15,5.5,6.25.18,3.74-2.96,6.92-6.68,7.1Z"/>
  <g>
    <path class="cls-1" d="M60.38,90.4c-.54-.45-1.24-.81-2.11-1.1-.87-.29-1.92-.52-3.15-.69-.83-.14-1.52-.28-2.07-.42-.55-.14-1.01-.29-1.36-.45-.35-.16-.62-.34-.8-.55-.18-.21-.29-.43-.34-.64-.05-.22-.07-.44-.07-.66,0-.33.07-.62.2-.89.13-.27.34-.48.62-.66.28-.17.66-.3,1.12-.39.47-.09,1.05-.13,1.73-.13.78,0,1.44.06,1.98.18.54.12.98.28,1.31.49.34.21.57.48.7.8.13.32.2.67.2,1.04v.34c0,.15,0,.28-.02.39.19-.02.43-.02.74-.02h2.01c.16,0,.31,0,.43.02.02-.12.02-.25.01-.37,0-.12,0-.25,0-.37,0-.12.01-.23.01-.33,0-.64-.09-1.21-.26-1.71-.17-.5-.43-.96-.78-1.37-.35-.41-.82-.76-1.39-1.05-.58-.29-1.27-.5-2.09-.63-.81-.13-1.74-.2-2.79-.2-1.23,0-2.3.12-3.19.35-.89.23-1.63.57-2.21,1-.59.43-1.03.94-1.35,1.53-.31.59-.47,1.27-.47,2.01,0,.58.07,1.11.22,1.6.15.49.38.94.7,1.34.32.4.75.75,1.28,1.07.53.31,1.17.59,1.93.83.76.24,1.65.42,2.68.53.77.09,1.43.21,1.98.35.55.14,1.01.3,1.37.47.36.17.65.36.87.56.22.2.37.43.46.67.09.24.13.51.13.81,0,.33-.07.64-.22.93-.15.29-.37.54-.68.75-.3.21-.72.36-1.25.46-.53.09-1.17.14-1.92.14-1.02,0-1.85-.11-2.49-.32-.65-.21-1.11-.53-1.39-.96-.28-.43-.42-.98-.42-1.65v-.22c0-.09,0-.16-.02-.22-.22.02-.48.02-.78.02h-.95c-.3,0-.59,0-.87-.01-.28,0-.52-.03-.7-.08-.02.14-.03.27-.03.39,0,.12-.01.23-.01.35v.39c0,.67.08,1.27.25,1.78.16.52.45.99.84,1.43.4.44.91.79,1.53,1.05.62.27,1.35.48,2.18.63.83.16,1.8.23,2.9.23,1.02,0,1.91-.08,2.68-.23s1.45-.38,2.04-.68c.59-.3,1.07-.66,1.44-1.08.37-.42.66-.9.86-1.44.2-.54.29-1.13.29-1.77,0-.78-.12-1.47-.35-2.06-.23-.59-.62-1.11-1.16-1.56Z"/>
    <path class="cls-1" d="M77.61,83.6v-1.58c0-.28,0-.52.02-.7h-13.85v3.05c1.28-.02,2.52-.03,3.72-.04.54,0,1.06,0,1.55,0v1.96c0,1.19,0,2.34-.01,3.46,0,1.12-.02,2.17-.02,3.16,0,.99-.02,1.89-.02,2.68,0,.8-.01,1.48-.01,2.06s-.02,1-.05,1.27c.2-.03.4-.05.6-.05h2.38c.22,0,.41.02.59.05-.02-.27-.03-.69-.05-1.27-.02-.58-.02-1.27-.02-2.07v-2.69c0-.99,0-2.04-.01-3.15,0-1.11-.01-2.25-.01-3.42v-1.98c.13,0,.25,0,.39,0,.76,0,1.55.02,2.37.02.82,0,1.64.01,2.47.01-.02-.22-.02-.47-.02-.76Z"/>
    <path class="cls-1" d="M99.71,94.67c-.64,0-1.14.18-1.49.55-.35.37-.53.89-.53,1.58s.18,1.27.54,1.66c.36.39.85.59,1.48.59.69,0,1.2-.2,1.53-.59.34-.39.5-.94.5-1.66s-.17-1.21-.52-1.58c-.34-.37-.85-.55-1.52-.55Z"/>
    <path class="cls-1" d="M128.73,90.08c0-1.92,0-3.58.02-4.97.02-1.39.03-2.65.05-3.8h-4.12c-.2.44-.46,1.01-.77,1.72-.31.71-.66,1.5-1.03,2.37-.37.87-.77,1.78-1.18,2.75-.41.97-.83,1.94-1.25,2.9-.17.39-.35.81-.53,1.27-.18.45-.36.91-.55,1.38-.06.16-.12.31-.18.47h-.06c-.05-.16-.11-.31-.17-.47-.18-.48-.37-.96-.56-1.44-.2-.48-.37-.89-.53-1.23-.44-1.02-.87-2.01-1.29-2.99-.42-.98-.82-1.89-1.19-2.74-.37-.85-.71-1.63-1-2.33-.29-.7-.54-1.26-.74-1.66h-4.5c.03,1.14.05,2.41.05,3.8v4.97c0,1.86,0,3.48-.01,4.85,0,1.37-.03,2.69-.06,3.96h3.12c-.02-.89-.03-1.73-.06-2.51-.02-.78-.04-1.56-.06-2.33-.02-.77-.02-1.57-.02-2.38v-2.69c0-.48-.01-.97-.03-1.46-.02-.49-.04-1-.06-1.52-.01-.49-.03-.97-.03-1.45l.12-.02c.12.36.25.74.39,1.13.17.48.35.96.53,1.42.18.46.36.9.53,1.32l4.54,10.5h1.57l4.45-10.24c.17-.42.34-.86.5-1.3.16-.44.33-.91.49-1.41.14-.43.28-.85.42-1.27l.12.02c0,.07,0,.14,0,.21-.03.66-.06,1.32-.08,2-.02.68-.04,1.33-.04,1.96,0,.94,0,1.83-.01,2.67,0,.84-.02,1.67-.05,2.47-.02.8-.04,1.6-.06,2.39-.02.79-.04,1.62-.07,2.49h3.51c-.03-1.27-.05-2.58-.07-3.96-.02-1.37-.02-2.99-.02-4.85Z"/>
    <path class="cls-1" d="M147.82,93.98c-.37-.98-.76-1.98-1.16-3.01s-.78-2.04-1.14-3.02c-.36-.98-.7-1.91-1.02-2.78-.32-.87-.6-1.64-.83-2.31-.23-.67-.42-1.19-.56-1.55h-5.25c-.13.36-.3.87-.54,1.53-.23.66-.51,1.44-.83,2.32-.32.88-.67,1.82-1.04,2.82-.37,1-.76,2.02-1.15,3.06-.39,1.04-.76,2.04-1.11,3.01-.35.97-.69,1.86-1.02,2.68-.33.82-.62,1.53-.89,2.14h3.75c.11-.37.27-.9.49-1.58.22-.68.48-1.45.78-2.31.02-.06.04-.13.07-.19.47-.01.94-.02,1.41-.02h5.22c.48,0,.96,0,1.46.02.01,0,.02,0,.04,0,.13.38.25.75.36,1.1.22.67.41,1.26.57,1.78.16.52.27.91.32,1.19h4.01c-.25-.62-.54-1.35-.88-2.19-.34-.84-.69-1.74-1.07-2.72ZM141.68,92.26h-4.04c-.13,0-.26,0-.39,0,.32-.93.64-1.87.97-2.82.34-.96.64-1.84.9-2.64.25-.73.47-1.37.66-1.91s.35-1,.49-1.39c.05-.15.1-.29.15-.42.05.13.09.27.14.42.13.39.29.84.47,1.36.18.52.4,1.12.67,1.83.23.69.49,1.43.76,2.23.27.8.55,1.6.84,2.42.11.31.21.61.32.91-.17,0-.33,0-.5,0-.49,0-.97.01-1.44.01Z"/>
    <path class="cls-1" d="M184.52,83.48c-.37-.49-.86-.93-1.46-1.3-.61-.37-1.32-.66-2.13-.86-.81-.2-1.77-.29-2.86-.29s-2.16.13-3.06.37c-.9.25-1.69.62-2.39,1.1-.7.48-1.28,1.09-1.75,1.83-.47.73-.83,1.57-1.08,2.49-.25.93-.37,1.97-.37,3.13,0,1.39.2,2.66.59,3.81.39,1.15.94,2.12,1.66,2.93.72.8,1.61,1.42,2.67,1.84,1.06.42,2.29.63,3.68.63,1.11,0,2.07-.09,2.89-.28s1.52-.47,2.1-.86c.58-.38,1.05-.84,1.42-1.38.37-.54.64-1.17.83-1.9s.3-1.53.34-2.42c.04-.89.03-1.85-.03-2.88h-4.5c-.52,0-1.11,0-1.79-.01-.68,0-1.38-.01-2.1-.01v2.41h1c.37,0,.75,0,1.16-.02.41-.02.82-.03,1.23-.03.41,0,.81-.02,1.18-.02.2,0,.39,0,.58,0,.01.56,0,1.08-.06,1.53-.09.73-.3,1.31-.63,1.76s-.78.77-1.35.96c-.57.2-1.28.29-2.12.29s-1.61-.12-2.26-.37c-.65-.25-1.19-.63-1.63-1.15-.44-.52-.77-1.17-.98-1.97-.22-.8-.33-1.74-.33-2.83s.12-2.05.35-2.81c.23-.76.56-1.39.98-1.87.42-.48.94-.83,1.57-1.04.62-.21,1.35-.32,2.18-.32.94,0,1.71.13,2.33.39.62.26,1.09.61,1.41,1.07.32.45.48,1.03.48,1.73v.16c0,.06,0,.13-.01.19,0,.06-.02.14-.04.23.23-.02.5-.02.8-.02h.94c.34,0,.66,0,.94.01.28,0,.52.01.7.01.03-.17.05-.32.05-.46v-.46c0-.59-.09-1.17-.28-1.72-.19-.55-.46-1.08-.83-1.57Z"/>
    <path class="cls-1" d="M203.48,93.98c-.37-.98-.76-1.98-1.16-3.01s-.78-2.04-1.14-3.02c-.36-.98-.7-1.91-1.02-2.78-.32-.87-.6-1.64-.83-2.31-.23-.67-.42-1.19-.56-1.55h-5.25c-.13.36-.3.87-.54,1.53-.23.66-.51,1.44-.83,2.32-.32.88-.67,1.82-1.04,2.82-.37,1-.76,2.02-1.15,3.06-.39,1.04-.76,2.04-1.11,3.01-.35.97-.69,1.86-1.02,2.68-.33.82-.62,1.53-.89,2.14h3.75c.11-.37.27-.9.49-1.58.22-.68.48-1.45.78-2.31.02-.06.04-.13.07-.19.47-.01.94-.02,1.41-.02h5.22c.48,0,.96,0,1.46.02.01,0,.02,0,.04,0,.13.38.25.75.36,1.1.22.67.41,1.26.57,1.78.16.52.27.91.32,1.19h4.01c-.25-.62-.54-1.35-.88-2.19-.34-.84-.69-1.74-1.07-2.72ZM197.34,92.26h-4.04c-.13,0-.26,0-.39,0,.32-.93.64-1.87.97-2.82.34-.96.64-1.84.9-2.64.25-.73.47-1.37.66-1.91s.35-1,.49-1.39c.05-.15.1-.29.15-.42.05.13.09.27.14.42.13.39.29.84.47,1.36.18.52.4,1.12.67,1.83.23.69.49,1.43.76,2.23.27.8.55,1.6.84,2.42.11.31.21.61.32.91-.17,0-.33,0-.5,0-.49,0-.97.01-1.44.01Z"/>
    <path class="cls-1" d="M222.69,96.72c-.14-.46-.32-.96-.54-1.51-.23-.75-.5-1.35-.78-1.79-.29-.45-.64-.79-1.07-1.03-.42-.24-.95-.41-1.59-.49-.17-.02-.35-.04-.54-.07v-.11c.3-.05.6-.11.87-.19.76-.22,1.39-.54,1.89-.97.49-.43.86-.97,1.1-1.62.24-.65.36-1.41.36-2.28s-.15-1.67-.46-2.34c-.3-.67-.74-1.23-1.3-1.68s-1.24-.78-2.04-1c-.8-.22-1.72-.33-2.76-.33h-8.25c.03,1.26.05,2.58.05,3.95v8.22c0,1.01,0,1.94-.01,2.81,0,.87-.02,1.73-.04,2.59h3.63c-.08-.81-.13-1.82-.16-3.01-.03-.96-.05-2-.06-3.1h1.92c.29,0,.57,0,.84-.01.27,0,.53-.01.78-.01h.82c.44,0,.82.04,1.14.12.32.08.59.21.82.4.23.19.43.45.61.77.18.33.36.75.53,1.25.17.51.37,1.11.59,1.82.14.53.26.92.35,1.16.09.24.2.41.3.49.11.09.27.13.49.13h3.28c-.11-.23-.23-.54-.36-.91-.13-.37-.27-.79-.41-1.25ZM213.95,90.17c-.5,0-.97,0-1.41-.02-.44-.02-.82-.03-1.14-.04-.18,0-.32,0-.45,0,0-.86,0-1.73,0-2.64,0-1.09.02-2.19.02-3.29.22,0,.45,0,.7-.01.3,0,.62-.02.96-.04.34-.02.66-.03.98-.03.32,0,.61-.01.86-.01h.63c.7,0,1.29.05,1.77.16.48.11.88.28,1.21.5.33.23.56.54.7.94.14.4.21.89.21,1.46s-.13,1.12-.39,1.59-.64.82-1.15,1.07c-.51.24-1.15.36-1.93.36h-1.59Z"/>
    <path class="cls-1" d="M248.77,84.14c-.45-.66-1.03-1.2-1.72-1.62-.7-.41-1.51-.72-2.44-.91-.93-.2-1.99-.29-3.17-.29h-6.93c.02.55.03,1.13.04,1.76,0,.62.02,1.31.02,2.05,0,.74.01,1.53.01,2.35v6.04c0,1.03,0,1.99-.01,2.87,0,.88-.03,1.71-.06,2.49h6.84c1.25,0,2.35-.11,3.3-.34.95-.23,1.77-.57,2.46-1.03.69-.46,1.25-1.05,1.7-1.76.45-.71.78-1.55,1-2.53.22-.98.33-2.09.33-3.34s-.11-2.37-.34-3.33c-.23-.95-.57-1.76-1.02-2.42ZM246.45,92.35c-.14.67-.34,1.24-.61,1.7-.27.46-.61.82-1.03,1.09-.42.27-.93.46-1.51.57-.59.12-1.23.18-1.93.18h-1.09c-.34,0-.66,0-.96-.01-.3,0-.63-.02-.97-.04-.09,0-.2-.01-.3-.02,0-.3-.01-.61-.02-.94,0-.56-.01-1.22-.01-1.98v-4.79c0-.7,0-1.39.02-2.07.01-.58.02-1.13.03-1.66.41-.02.82-.03,1.23-.04.67-.02,1.37-.02,2.11-.02s1.36.05,1.93.16c.57.11,1.07.29,1.49.53.42.24.76.58,1.02,1.02.26.44.46.98.6,1.63.14.65.21,1.41.21,2.28,0,.94-.07,1.74-.21,2.41Z"/>
    <path class="cls-1" d="M268.83,96.7c-.34-.84-.69-1.74-1.07-2.72-.37-.98-.76-1.98-1.16-3.01s-.78-2.04-1.14-3.02c-.36-.98-.7-1.91-1.02-2.78-.32-.87-.6-1.64-.83-2.31-.23-.67-.42-1.19-.56-1.55h-5.25c-.13.36-.3.87-.54,1.53-.23.66-.51,1.44-.83,2.32-.32.88-.67,1.82-1.04,2.82-.37,1-.76,2.02-1.15,3.06-.39,1.04-.76,2.04-1.11,3.01-.35.97-.69,1.86-1.02,2.68-.33.82-.62,1.53-.89,2.14h3.75c.11-.37.27-.9.49-1.58.22-.68.48-1.45.78-2.31.02-.06.04-.13.07-.19.47-.01.94-.02,1.41-.02h5.22c.48,0,.96,0,1.46.02.01,0,.02,0,.04,0,.13.38.25.75.36,1.1.22.67.41,1.26.57,1.78.16.52.27.91.32,1.19h4.01c-.25-.62-.54-1.35-.88-2.19ZM261.63,92.26h-4.04c-.13,0-.26,0-.39,0,.32-.93.64-1.87.97-2.82.34-.96.64-1.84.9-2.64.25-.73.47-1.37.66-1.91s.35-1,.49-1.39c.05-.15.1-.29.15-.42.05.13.09.27.14.42.13.39.29.84.47,1.36.18.52.4,1.12.67,1.83.23.69.49,1.43.76,2.23.27.8.55,1.6.84,2.42.11.31.21.61.32.91-.17,0-.33,0-.5,0-.49,0-.97.01-1.44.01Z"/>
    <path class="cls-1" d="M166.32,90.42c.84-1.06,1.26-2.14,1.26-3.2,0-.99-.18-1.9-.53-2.67-.35-.77-.86-1.41-1.52-1.94-.86-.68-2.01-1.15-3.35-1.39-1.04-.18-2.23-.22-3.55-.15-2.25.15-4.3.64-5.18.84-.04.02-.09.02-.13.04l-1.26.26v16.7h3.09v-4.02c.49.13,1.04.2,1.63.2,1.04,0,2.25-.24,3.49-.66.79-.26,1.61-.62,2.36-1.04.31.62.55,1.28.75,2.01.33,1.19.49,2.25.64,3.51h2.98c-.29-2.49-.64-4.94-1.88-7.21.46-.42.88-.84,1.21-1.28ZM156.76,92.1c-.6,0-1.06-.11-1.3-.31-.09-.07-.26-.22-.33-.71v-.57c.07-.46.31-.62.66-.75.77-.22,1.99-.09,3.18.35.64.24,1.24.55,1.72.9-1.37.68-2.8,1.08-3.93,1.08ZM163.98,88.57c-.2.24-.42.46-.68.71-.86-.79-2.01-1.5-3.29-1.96-.84-.33-1.72-.53-2.56-.62-.26-.02-.51-.04-.77-.04-.55,0-1.06.07-1.54.2v-2.25c.95-.2,2.29-.44,3.68-.53,2.25-.15,3.93.18,4.85.88.82.66.93,1.61.93,2.27,0,.38-.22.84-.62,1.35Z"/>
    <path class="cls-1" d="M229.79,84.07c.4-.27.88-.54,1.26-.97.58-.58.88-1.28.88-2.07h-2.9c-.07.11-.52.38-.76.54-.4.27-.88.54-1.28.97-.58.58-.88,1.28-.88,2.07s.29,1.48.88,2.07c.4.4.88.7,1.28.94.25.16.76.4.76.56s-.52.38-.76.54c-.4.25-.88.54-1.28.94-.58.58-.88,1.28-.88,2.07s.29,1.51.88,2.09c.4.4.88.7,1.28.94.25.16.76.38.76.54s-.52.4-.76.56c-.4.25-.88.54-1.28.94-.58.58-.88,1.28-.88,2.07h2.92l.76-.54c.4-.27.88-.54,1.26-.94.58-.61.88-1.3.88-2.09s-.29-1.48-.88-2.07c-.38-.4-.85-.7-1.26-.94-.27-.16-.76-.38-.76-.56,0-.16.49-.38.76-.54.4-.25.88-.54,1.26-.94.58-.58.88-1.28.88-2.07s-.29-1.48-.88-2.09c-.38-.4-.85-.7-1.26-.94-.27-.16-.76-.38-.76-.54s.49-.4.76-.54Z"/>
    <path class="cls-1" d="M84.8,81.32c-1.01,1.21-1.87,2.42-2.53,3.87-.66,1.43-1.12,2.94-1.38,4.5-.07.51-.13.99-.15,1.43-.18.15-.35.29-.55.44-.99.88-1.84,1.89-2.53,3.05-.68,1.16-1.32,2.99-1.58,4.28h2.96c.2-.99.55-1.95,1.08-2.86.35-.57.75-1.12,1.19-1.63.57,1.23,1.56,2.17,2.72,2.59.79.31,1.71.33,2.55.07.92-.29,1.67-.88,2.11-1.67.53-.94.53-2.11.04-3.16-.55-1.25-1.71-2.2-2.99-2.46-.64-.13-1.3-.15-1.98-.02.22-1.16.59-2.31,1.08-3.4.35-.77.77-1.49,1.25-2.2l6.7,14.74h3.4l-7.91-17.57h-3.49ZM85.08,92.45c.42.09.87.47,1.08.91.07.19.16.44.02.68-.19.33-.8.49-1.26.33-.59-.21-1.1-.84-1.34-1.62-.02-.05-.02-.09-.05-.14.75-.26,1.27-.21,1.55-.16Z"/>
  </g>
  <g>
    <path class="cls-1" d="M70.58,120.98c-1.34.52-2.78.26-3.81-.78-.88-.88-1.23-2.24-.86-3.45.02-.13.06-.24.11-.34l-.32-.17c-1.12-.6-1.83-1.79-1.83-3.06s.71-2.48,1.83-3.08c.11-.06.22-.11.32-.15-.04-.13-.09-.24-.11-.34-.37-1.21-.04-2.56.86-3.47,1.1-1.06,2.58-1.23,3.79-.78l.13-.24c.56-1.06,1.66-1.83,3.04-1.83,1.27,0,2.35.62,2.99,1.72.09.13.15.26.22.39,1.27-.5,2.78-.37,3.92.73.9.9,1.23,2.26.86,3.47-.02.11-.06.22-.11.34.11.04.22.09.32.15,1.12.6,1.83,1.81,1.83,3.08s-.71,2.45-1.83,3.06l-.32.17c.04.11.09.22.11.34.37,1.21.02,2.56-.86,3.45-1.08,1.08-2.54,1.27-3.81.78-.04.11-.11.22-.17.32-.65,1.16-1.72,1.81-3.06,1.81-1.59,0-2.8-1.06-3.23-2.13ZM69.46,114.97c.45,1.1-1.55,2.43-.71,3.27.15.15.3.19.47.19.71,0,1.64-.99,2.43-.99.13,0,.24.02.34.06,1.1.45.62,2.82,1.81,2.82s.71-2.37,1.81-2.82c.11-.04.22-.06.34-.06.8,0,1.72.99,2.43.99.17,0,.32-.04.47-.19.84-.84-1.16-2.18-.71-3.27.45-1.08,2.8-.62,2.8-1.79s-2.35-.71-2.8-1.81c-.45-1.08,1.55-2.43.71-3.25-.15-.15-.3-.22-.47-.22-.71,0-1.64.99-2.43.99-.13,0-.24-.02-.34-.06-1.1-.45-.82-2.76-1.9-2.76-1.14,0-.62,2.3-1.72,2.76-.11.04-.22.06-.34.06-.8,0-1.72-.99-2.43-.99-.17,0-.32.06-.47.22-.84.82,1.16,2.17.71,3.25-.45,1.1-2.8.62-2.8,1.81s2.35.71,2.8,1.79Z"/>
    <path class="cls-1" d="M105.27,114.28c0-6.09.67-10.12,8.42-10.12,4.18,0,7.15,2.13,7.15,5.17h-3.01c0-1.38-1.72-2.37-4.13-2.37-4.41,0-5.1,1.83-5.25,5.23,1.06-1.66,3.38-2.78,5.9-2.78,4.09,0,7,2.54,7,6.16,0,3.98-3.34,6.78-8.08,6.78-4.46,0-7.99-2.8-7.99-8.08ZM113.26,119.55c2.97,0,5.06-1.66,5.06-3.98,0-1.94-1.92-3.32-4.63-3.32-2.86,0-5.04,1.38-5.28,3.32,0,2.33,2,3.98,4.85,3.98Z"/>
    <path class="cls-1" d="M58.97,122.26l-.54-1.26c-.21-.49-.63-1.32-1.33-2.16-.3.26-.64.52-1.02.79-2.33,1.61-5.62,3.24-8.11,1.86-.99-.55-1.77-1.58-2.08-2.74-.29-1.08-.16-2.17.37-3.05.92-1.52,2.73-1.94,3.5-2.11,2.3-.53,4.23.13,4.95.38.81.28,1.53.64,2.16,1.05.59-.78,1.28-1.8,1.4-3.01.14-1.31-.31-4.04-2.96-5.01-2.22-.81-4.97-.1-6.55,1.7l-.9,1.03-2.06-1.81.9-1.03c2.33-2.66,6.26-3.67,9.55-2.46,3.68,1.35,5.03,5.02,4.74,7.86-.21,2.01-1.31,3.54-2.05,4.51,1.07,1.2,1.69,2.42,1.99,3.12l.54,1.26-2.52,1.07ZM51.54,116.11c-.36,0-.75.04-1.15.13-.48.11-1.46.34-1.78.86-.14.23-.17.57-.07.93.12.45.42.86.77,1.05.94.52,2.94-.13,5.23-1.71.16-.11.3-.22.44-.32-.35-.19-.72-.36-1.13-.5-.42-.15-1.26-.43-2.29-.43Z"/>
    <path class="cls-1" d="M99.3,122.26l-.54-1.26c-.21-.49-.63-1.32-1.33-2.16-.3.26-.64.52-1.02.79-2.33,1.61-5.62,3.24-8.11,1.86-.99-.55-1.77-1.58-2.08-2.74-.29-1.08-.16-2.17.37-3.05.92-1.52,2.73-1.94,3.5-2.11,2.3-.53,4.23.13,4.95.38.81.28,1.53.64,2.16,1.05.59-.79,1.28-1.8,1.4-3.01.14-1.31-.31-4.04-2.96-5.01-2.22-.81-4.97-.1-6.55,1.7l-.9,1.03-2.06-1.81.9-1.03c2.33-2.66,6.26-3.67,9.55-2.46,3.68,1.35,5.03,5.02,4.74,7.86-.21,2.01-1.31,3.54-2.05,4.51,1.07,1.2,1.69,2.42,1.99,3.12l.54,1.26-2.52,1.07ZM91.87,116.11c-.36,0-.75.04-1.15.13-.48.11-1.46.34-1.78.86-.14.23-.17.57-.07.93.12.45.42.86.77,1.05.94.52,2.94-.13,5.23-1.71.16-.11.3-.22.44-.32-.35-.19-.72-.36-1.13-.5-.42-.15-1.26-.43-2.29-.43Z"/>
  </g>
</svg>