<?xml version="1.0" encoding="UTF-8"?>
<svg id="Camada_1" data-name="Camada 1" xmlns="http://www.w3.org/2000/svg" viewBox="0 0 133.53 121.6">
  <defs>
    <style>
      .cls-1 {
        fill: #fff;
      }
    </style>
  </defs>
  <path class="cls-1" d="M56.5,88.89c-4.25,1.64-8.83.82-12.12-2.46-2.81-2.81-3.9-7.12-2.74-10.95.07-.41.21-.75.34-1.1l-1.03-.55c-3.56-1.92-5.82-5.68-5.82-9.72s2.26-7.87,5.82-9.79c.34-.21.68-.34,1.03-.48-.14-.41-.27-.75-.34-1.1-1.16-3.84-.14-8.15,2.74-11.02,3.49-3.35,8.22-3.9,12.05-2.46l.41-.75c1.78-3.36,5.27-5.82,9.65-5.82,4.04,0,7.46,1.99,9.52,5.48.27.41.48.82.68,1.23,4.04-1.57,8.83-1.16,12.46,2.33,2.88,2.88,3.9,7.19,2.74,11.02-.07.34-.21.68-.34,1.1.34.14.68.27,1.03.48,3.56,1.92,5.82,5.75,5.82,9.79s-2.26,7.8-5.82,9.72l-1.03.55c.14.34.27.68.34,1.1,1.17,3.83.07,8.15-2.74,10.95-3.42,3.42-8.08,4.04-12.12,2.46-.14.34-.34.68-.55,1.03-2.05,3.7-5.48,5.75-9.72,5.75-5.07,0-8.9-3.36-10.27-6.78ZM52.93,69.79c1.44,3.49-4.93,7.74-2.26,10.41.48.48.96.62,1.51.62,2.26,0,5.2-3.15,7.74-3.15.41,0,.75.07,1.1.21,3.49,1.44,1.99,8.97,5.75,8.97s2.26-7.53,5.75-8.97c.34-.14.68-.21,1.1-.21,2.53,0,5.48,3.15,7.74,3.15.55,0,1.03-.14,1.51-.62,2.67-2.67-3.7-6.91-2.26-10.41,1.44-3.42,8.9-1.99,8.9-5.68s-7.46-2.26-8.9-5.75c-1.44-3.42,4.93-7.74,2.26-10.34-.48-.48-.96-.68-1.51-.68-2.26,0-5.2,3.15-7.74,3.15-.41,0-.75-.07-1.1-.2-3.49-1.44-2.6-8.76-6.03-8.76-3.63,0-1.99,7.33-5.48,8.76-.34.14-.68.2-1.1.2-2.53,0-5.48-3.15-7.74-3.15-.55,0-1.03.21-1.51.68-2.67,2.6,3.7,6.92,2.26,10.34-1.44,3.49-8.9,1.99-8.9,5.75s7.46,2.26,8.9,5.68Z"/>
</svg>