<?xml version="1.0" encoding="UTF-8"?>
<svg id="Camada_1" data-name="Camada 1" xmlns="http://www.w3.org/2000/svg" viewBox="0 0 167.73 126.1">
  <defs>
    <style>
      .cls-1, .cls-2 {
        fill: #fff;
      }

      .cls-1, .cls-3, .cls-4 {
        fill-rule: evenodd;
      }

      .cls-5 {
        fill: none;
        stroke: #292523;
        stroke-miterlimit: 2.41;
        stroke-width: 2.1px;
      }

      .cls-6, .cls-4 {
        fill: #c1cf4e;
      }

      .cls-3 {
        fill: #12110c;
      }
    </style>
  </defs>
  <path class="cls-6" d="M60.3,80.25h-1.65c-.04-.58-.26-1.05-.67-1.38-.41-.34-.96-.5-1.64-.5-.57,0-1.03.13-1.39.4-.36.27-.54.59-.54.99s.16.72.48.98c.32.25.98.51,2,.77,1.54.39,2.54.81,3.01,1.26.47.45.71,1.09.71,1.9,0,.98-.37,1.78-1.1,2.38-.74.6-1.72.9-2.95.9-1.3,0-2.31-.31-3.03-.94-.72-.62-1.11-1.52-1.16-2.7h1.69c.05.68.3,1.2.76,1.58.46.37,1.09.56,1.88.56.6,0,1.09-.14,1.47-.43.38-.29.57-.64.57-1.07,0-.17-.05-.35-.16-.56-.11-.21-.24-.39-.41-.54-.27-.25-.89-.49-1.83-.72-.2-.05-.36-.09-.46-.11-1.17-.31-2-.7-2.48-1.18-.48-.48-.72-1.12-.72-1.94,0-.87.35-1.58,1.06-2.13.71-.55,1.65-.82,2.82-.82s2.05.3,2.73.9c.68.6,1.02,1.41,1.03,2.42h0Z"/>
  <path class="cls-6" d="M66.01,78.95l-1.56,4.54h3.11l-1.56-4.54h0ZM65.04,77.19h1.96l3.84,10.46h-1.86l-.94-2.71h-4.07l-.92,2.71h-1.82l3.8-10.46h0Z"/>
  <polygon class="cls-6" points="71.92 77.19 73.77 77.19 78.64 85.02 78.64 77.19 80.32 77.19 80.32 87.65 78.49 87.65 73.59 79.83 73.59 87.65 71.92 87.65 71.92 77.19 71.92 77.19"/>
  <polygon class="cls-6" points="81.56 77.19 89.73 77.19 89.73 78.73 86.52 78.73 86.52 87.65 84.79 87.65 84.79 78.73 81.56 78.73 81.56 77.19 81.56 77.19"/>
  <path class="cls-6" d="M94.13,78.95l-1.56,4.54h3.11l-1.55-4.54h0ZM93.16,77.19h1.96l3.84,10.46h-1.86l-.94-2.71h-4.07l-.92,2.71h-1.82l3.8-10.46h0Z"/>
  <path class="cls-6" d="M52.75,100.65v-10.46h3.69l1.38,5.09c.12.45.23.89.33,1.31.1.42.19.84.26,1.24.09-.43.19-.87.31-1.34.11-.47.24-.97.39-1.5l1.3-4.8h3.68v10.46h-2.44v-4.64c0-.33,0-.78.02-1.37.02-.59.04-1.27.07-2.04l-2.01,8.05h-2.66l-1.97-8.05c.03.93.06,1.76.08,2.5.02.74.03,1.32.03,1.74v3.81h-2.46Z"/>
  <path class="cls-6" d="M69.14,96.57h2.29l-1.16-3.61-1.12,3.61h0ZM68.89,90.19h2.93l3.69,10.46h-2.88l-.64-1.92h-3.49l-.6,1.92h-2.78l3.76-10.46h0Z"/>
  <path class="cls-6" d="M79.19,94.67h2c.54,0,.94-.1,1.19-.3.25-.2.38-.52.38-.95,0-.38-.12-.67-.37-.86-.25-.19-.62-.28-1.13-.28h-2.07v2.39h0ZM76.52,100.65v-10.46h5.01c1.33,0,2.3.24,2.93.71.63.47.94,1.21.94,2.2,0,.59-.13,1.09-.4,1.51-.27.42-.68.77-1.25,1.05.46.18.78.41.97.71.19.3.3.83.33,1.59.01.21.03.5.04.86.03.84.18,1.33.43,1.46v.36h-2.81c-.14-.37-.22-.88-.23-1.52-.02-.64-.04-1.05-.06-1.21-.04-.41-.18-.71-.41-.89-.23-.19-.58-.28-1.04-.28h-1.79v3.91h-2.66Z"/>
  <path class="cls-6" d="M95.08,100.65l-.21-1.35c-.39.55-.86.96-1.4,1.22-.54.27-1.18.4-1.9.4-.68,0-1.3-.12-1.88-.37-.57-.25-1.08-.61-1.52-1.09-.46-.49-.81-1.07-1.04-1.74-.24-.67-.36-1.4-.36-2.19,0-1.71.49-3.08,1.47-4.11.98-1.03,2.28-1.55,3.9-1.55,1.23,0,2.24.31,3.04.92.8.62,1.3,1.48,1.52,2.58h-2.56c-.17-.45-.43-.79-.78-1.02-.35-.23-.78-.34-1.29-.34-.77,0-1.39.31-1.86.94-.47.62-.71,1.45-.71,2.48s.23,1.82.7,2.42c.47.6,1.09.9,1.87.9.63,0,1.14-.16,1.55-.48.41-.32.66-.76.76-1.33h-2.33v-2.01h4.72v5.7h-1.68Z"/>
  <path class="cls-6" d="M101.68,96.57h2.29l-1.16-3.61-1.12,3.61h0ZM101.43,90.19h2.93l3.69,10.46h-2.88l-.64-1.92h-3.49l-.6,1.92h-2.78l3.76-10.46h0Z"/>
  <path class="cls-6" d="M111.73,94.67h2c.54,0,.94-.1,1.19-.3.25-.2.38-.52.38-.95,0-.38-.12-.67-.37-.86-.25-.19-.62-.28-1.13-.28h-2.07v2.39h0ZM109.07,100.65v-10.46h5.01c1.33,0,2.3.24,2.93.71.63.47.94,1.21.94,2.2,0,.59-.13,1.09-.4,1.51-.27.42-.68.77-1.25,1.05.46.18.78.41.97.71.19.3.3.83.33,1.59.01.21.03.5.04.86.03.84.18,1.33.43,1.46v.36h-2.8c-.14-.37-.22-.88-.23-1.52-.02-.64-.04-1.05-.06-1.21-.04-.41-.18-.71-.41-.89-.23-.19-.58-.28-1.04-.28h-1.79v3.91h-2.66Z"/>
  <polygon class="cls-6" points="119.82 90.19 122.49 90.19 122.49 100.65 119.82 100.65 119.82 90.19 119.82 90.19"/>
  <path class="cls-6" d="M127.3,98.46h1.46c.83,0,1.44-.24,1.82-.73.39-.49.58-1.25.58-2.29s-.19-1.81-.58-2.3c-.39-.49-.99-.73-1.82-.73h-1.46v6.05h0ZM124.61,100.65v-10.46h4.47c1.55,0,2.73.45,3.56,1.35.83.9,1.24,2.2,1.24,3.89s-.43,3.05-1.28,3.92c-.85.87-2.14,1.3-3.87,1.3h-4.12Z"/>
  <path class="cls-6" d="M138.37,96.57h2.29l-1.16-3.61-1.12,3.61h0ZM138.12,90.19h2.93l3.69,10.46h-2.88l-.64-1.92h-3.49l-.6,1.92h-2.78l3.76-10.46h0Z"/>
  <path class="cls-5" d="M37.38,77.41c-.06.05-.11.09-.17.13h-.15c.11-.04.21-.09.32-.13h0Z"/>
  <path class="cls-4" d="M59.65,32.09c8.98-7.93,20.75,9.94,25.55,26.19-24.15-2.12-45.44,3.84-55.22,14.45.57-3.22,1.48-7.14,2.8-11.88,10.44-37.59,17.37-20.36,26.88-28.75h0Z"/>
  <path class="cls-1" d="M72.91,34.82h2.31v4.63h-2.31v-4.63h0ZM70.95,46.02h6.23v11.09h-6.23v-11.09h0ZM74.05,30.58l13.09,11.5h.02v16.32c-11.47,0-22.74,5.59-34.05,5.59V24.93l3.73-3.47,4.11,3.33v16.88l12.48-11.11v-2.18h-2v-.62h2v-1.77h.62v1.77h2v.62h-2v2.2h0Z"/>
  <path class="cls-1" d="M101.39,50.69c.07-.91,2.79-2.15-.42-3.66-.34-.16-.41-.45-.84-.36l-.19-.07c.13.22.13.07.18.25l.05.16-.22.06-.13-.19-.26.07c.03.16,0,.41-.16.46-4.29,1.28-8.2-1.08-10.35-.44-.47.14-.45.13-1.12-.11-.59.18-.63,1.08-.9,1.18-.41.15-.82.33-1.18.54-.41.23-.55.38-1.14.56-.51.16-.42.47-.98.65l.43-.32-.02-.09h-.41s.33-.39.33-.39l-.05-.04-.22.06c-.01-.5.46-.32.87-.43.1-.03,0-.12.18-.17l.81-.24v-.18s.22-.09.22-.09l-4.6,1.33-.06.19c.4-.12,1.74-.67,1.84-.31l.02.05c.06.2-.12.17-.06.37l.14.48-.17.23c.56-.17.72-.28,1.17-.5.23-.12.37-.11.56-.24.14-.09.31-.26.43-.31.24-.11.46-.1.62-.26.14-.14.37-.02.64-.16,2.84-.25,3.49-3.42,4.84.77l.13.43-.11.03.11.38.58,1.41.07-.05c.04.73.46,1.87,1.66,1.55.18.04.68.23.73.41.03.09-.62.45-.73.51-.14.08-.67.49-.67.49l-.38.11-.5.08-.11-.37c-.12-.12-.24-.25-.34-.38-.14-.18-.38-.23-.4-.28l-.06-.45-.16.05c-.38-.66-1.26-.6-1.4-.95l-.49-.17c-.23-.31-.39,0-.55-.56-.45-.04.26-.33-.66-.04l-.08-.29-.82-.03v.07s-.2-.06-.2-.06l-.66.13-.22.07c-.12.04-.11.08-.18.16l-.28.04c0,.13-.02.14.03.29l.05.16-.81.24.04.31-.15.55.6,1.89.03-.2c.11.04.11-.02.16.13l.03.11c.05.19-.08.11-.03.3l.02.05c.11.38.37.12.55.66l.16-.05-.04-.25.45.25c.57.61,1.86.94,3.01.32.74-.23.37.24.81.12.15.39.65.06.94.19.04.02.73.47.73.49l.06.22c.04.15-.29.45-.42.68-.13.24-.18.47-.5.59l.05.16c.37-.08.49.09,1.03-.07,1.24-.36,8.02-.88,7.27-3.4l-.26-.8c-.37.07-.17-.21-.4-.23-.04.1.02.11-.13.16-1.37.1-2.54-.44-3.88-1.01-.14-.47-.51-1.27-.29-1.56,1.03.6,1.36,2.37,2.69.55,1.42-.42,1.34-1.4,1.83-1.54l.83.45,1.43-.68-.02-.14-.02-.05h0Z"/>
  <path class="cls-3" d="M94.14,43.52l.05.16c.07.25.21.58.44.51l.43-.13c.37-.11.34-.62.24-.95l-.11-.38c-.04-.13-.29-.26-.42-.23l-.11.03c-.32.1-.63.63-.53.98h0Z"/>
  <path class="cls-3" d="M89.96,45.24l-.16.05c-.71.21-1.01.55-1.53.8-.59.28-1.22.41-1.57.83-.35.1-.88.31-.88.61,1.07-.32,3.25-.99,4.2-1.44.69-.33,3.89-.96,3.67-1.73l-.1-.32c-.08-.27-.52-.26-.64-.57-.29.09-.31.32-.63.47-.23.12-.7.31-.88.38-.36.15-1.46.68-1.48.92h0Z"/>
  <path class="cls-4" d="M78.76,47.46c.93,3.11,5.17,1,7.12.44-.34.17-2.09.8-2.08,1.11l.22-.06.05.04-.33.4h.41s.02.08.02.08l-.43.32c.59-.19,1.53-.87,2.12-1.2.89-.51,2.35-1.36,3.21-1.61,1.31-.39,13.32,4.27,11.64-1.53v-.05c-.27-.85-4.31-1.57-4.93-1.53l-.15-1.3c2.57-6.12-8-3.62-10.59-2.83-3.11,1.48-7.51,3.58-6.27,7.74h0Z"/>
  <path class="cls-1" d="M94.14,43.52c-.1-.35.21-.88.53-.98l.11-.03c.13-.04.38.1.42.23l.11.38c.1.33.12.84-.24.95l-.43.13c-.24.07-.37-.26-.44-.51l-.05-.16h0Z"/>
  <polygon class="cls-1" points="92.95 43.46 93.69 44.36 85.82 47.52 92.95 43.46 92.95 43.46"/>
  <path class="cls-4" d="M82.02,50.71v.23c-1.89,5.74,4.9,9.93,7.74,9.61.24-.07,2.54-2.5,2.41-2.95l-.06-.22c-.13-.44-1.27-.49-1.48-1.02-8.89,2.43-4.97-8.22-1.43-3.62,1.26.79,2.66,1.27,2.94,2.17l.5-.08.38-.11s.54-.41.67-.49c.11-.06.75-.42.73-.51-.05-.18-.55-.37-.73-.41-1.9-.44-1.95-3.84-2.36-5.24-.05-.18-1.19-.48-1.43-.72-2.75.75-5.06,2.53-7.88,3.38h0Z"/>
  <path class="cls-1" d="M105.13,46.52l.04.34-.21.24-.11,1.08-.02.05-.38-.28c.14.36.39.38.63.84.2.38.3.88.42,1.31l.65-.19c.19-.23.54-.71.46-1.06l.37-.3c.04.2-.04.55-.08.73-.07.34.11.53.06.8l.19.65.17.36c.38-.02.24.22.62.11l.54-.16c.23-.07.48-.85.72-.92.36-.11.28.56,1.15.31l.11-.03c.3-.09.39-.21.46-.43.4-.12.21-.18.4-.24l.11-.03c.12-.04.42.06.52.14l-.02.18c2.53-.66,1.9-1.73,1.91-4.44l-.06-.21c.39-.46.35-.96-.14-1.25-.24,0-.26-.1-.59,0l-.05.02c-.52.15-.92,1.64-1.11,1.8l-.3.47c-.21-.33-.53-.7-.91-.58l-.22.06c-.3.09-.55.54-.61.8-.06.28-.17.25-.29.43-.14.2.03.29-.19.44l-.3-1.02c-.04-.14-.52-.31-.72-.25l-.32.1c-.15.04-.14.07-.25.14l.06.21-.35.18-.05.34-.27.16c.08-.51-.43-1.64-.86-1.51l-.11.03c-.41.12-.77.34-.81.65l-.21.06-.03-.11h0Z"/>
  <path class="cls-4" d="M103.26,52.85l1.81-.61-1.81.61h0ZM101.4,50.75s-1.85.26-2.24.37c-2.36.7-1.41,2.37-4.16,1.24-.26-.11-.03-.15-.36-.25-.64,2.46,3.58,3.67,4.17,2.57.15-.04.09-.05.13-.16,0,.03.63,1.33.73,1.66.39-.12.87-.73,1.11-.8l.27-.08c.17,2.33,1.1,3.18,2.33,3.3-.17-.58.14-1.3.13-1.33l-.06-.21c-.04-.15-.08-.12-.21-.11l-.08-.26.2-.13c-.21-.18-.18-.6-.19-.83,0-.49.17-.57.19-.75l1.11-.4c3.87-1.17,7.23-1.81,11.21-2.41l.44.52c1.21,1.88-3.49,3.39-4.59,3.13l-.05.02-.11.03c-.09.11-.58.69-.61.76-.08.16-.44.65-.65.73.05.24-.08.38-.26.49l.1.32c.23-.05.13.01.33-.06l.65-.17,1.11-.21c1.22-1.4,4.27-1.4,5.84-2.67.15-.12.19-.28.27-.44.23-.41.23-1.25.13-1.74l.22-.06c1.4,0,3.63,3.01,5.31,1.75-.1-2.59-1.68-13.16-4.9-12.2-1.01.3-4.38,6.88-7,7.66-.25.32-1.88.97-2.53,1.16l-1.94.58c-.3.09-.65,0-.72-.26l-.03-.11c-.04-.13.12-.41.13-.56l.32-.1-.19-.65c.04-.27-.14-.46-.06-.8.04-.18.12-.52.08-.73l-.37.3c.09.35-.27.83-.46,1.06l-.65.19c-.13-.43-.23-.93-.42-1.31-.24-.46-.49-.48-.63-.84-.09-.14-.88-.68-1.07-.62-.12.04-.15.09-.11.21l.08.27c.06.19.13.05.19.24l.03.11c.1.35.1,1.1.01,1.36-.02.07-.2.51-.22.56-.1.17-.35.3-.37.48l-.38.11c-.34.1-.88.24-1.05.02l-.16.05h0Z"/>
  <path class="cls-1" d="M103.37,56.56l-.2.13.08.26c.13,0,.17-.04.21.11l.06.21s-.3.75-.13,1.33l-.18.58.03.11-.16.19-.03.53h-.06s.08.26.08.26l-.13.43c-.17.07-.29.13-.23.32.09.29.19.26.28.56.27,0,.37.28.5.5.19.32.27.3.47.56.13.17.84,1.07.88,1.21l.05-.05.27.36,3.67-1.09h-.23s-.03-.1-.03-.1l.27-.08c.28-.08.31-.58.49-.78.19-.2.66-.39.92-.59.12-.1,2.02-.83,2.26-.9l.27-.26-.13-1.02.16-.4-.09-.38-.06-.22c-.05-.16-.15-.31-.31-.26l-.16.05-.22-.34.22-.09h-.12s-1.11.22-1.11.22l-.65.17c-.2.08-.11.02-.33.06l-.1-.32c.18-.11.32-.25.26-.49.21-.08.58-.57.65-.73.03-.07.52-.65.61-.76l.11-.03.05-.02-.09-.09c.02-.1.03-.1,0-.24l-.02-.05c-.1-.34-.54-.54-.89-.44-.38-.61-1.14-.78-2.05-.38-.44.19-.74.25-1.1.53-.23.18-.66.46-.99.55l.03.11-.32.1-.08-.27c-.16-.52.16-.63.13-.74-.05-.16-.41-.35-.56-.3l-.49.14c-.18.05-.62.68-.81.87-.07.06-.38.37-.41.41-.1.18-.06.39-.31.46,0,0-.12-.02-.12-.02l-.09.09h0Z"/>
  <path class="cls-1" d="M74.01,57.83c22.56,0,41.69,7.97,48.32,18.98-10.51-8.37-28.23-13.87-48.32-13.87s-37.82,5.5-48.32,13.87c6.63-11.02,25.76-18.98,48.32-18.98h0Z"/>
  <path class="cls-4" d="M79.54,57.83c22.56,0,41.69,7.97,48.32,18.98-10.51-8.37-28.23-13.87-48.32-13.87s-37.81,5.5-48.32,13.87c6.63-11.02,25.76-18.98,48.32-18.98h0Z"/>
  <polygon class="cls-2" points="101.24 30.65 99.32 38.73 98.98 38.65 100.99 30.18 100.73 29.67 99.92 29.92 99.64 30.01 99.7 29.72 99.89 28.9 99.11 28.57 98.83 28.45 99.07 28.27 99.74 27.76 99.36 27.01 99.22 26.74 99.52 26.75 100.36 26.8 100.55 25.97 100.61 25.68 100.84 25.88 101.45 26.46 102.13 25.95 102.37 25.76 102.4 26.06 102.51 26.9 103.35 26.94 103.66 26.95 103.49 27.21 103.04 27.91 103.65 28.49 103.88 28.69 103.59 28.78 102.78 29.03 102.89 29.87 102.93 30.17 102.65 30.05 101.87 29.73 101.42 30.43 101.26 30.69 101.24 30.65 101.24 30.65"/>
  <polygon class="cls-2" points="99.48 15.1 100.63 19.13 100.46 19.17 99.25 14.95 99.01 14.79 98.72 15.1 98.61 15.21 98.57 15.07 98.45 14.66 98.03 14.71 97.87 14.73 97.94 14.58 98.1 14.2 97.75 13.96 97.62 13.88 97.76 13.81 98.14 13.62 98.02 13.21 97.97 13.06 98.12 13.1 98.54 13.2 98.71 12.81 98.77 12.67 98.86 12.79 99.11 13.13 99.49 12.94 99.63 12.87 99.62 13.03 99.59 13.45 100.01 13.55 100.15 13.58 100.05 13.7 99.76 14 100.01 14.35 100.1 14.47 99.95 14.49 99.53 14.54 99.5 14.96 99.49 15.11 99.48 15.1 99.48 15.1"/>
  <polygon class="cls-2" points="94.31 23.14 93.4 28.31 93.18 28.27 94.13 22.85 93.95 22.54 93.45 22.73 93.27 22.8 93.3 22.61 93.39 22.08 92.89 21.91 92.71 21.84 92.85 21.71 93.26 21.37 92.98 20.91 92.89 20.75 93.08 20.74 93.61 20.74 93.7 20.21 93.73 20.02 93.88 20.14 94.29 20.48 94.69 20.13 94.84 20.01 94.87 20.2 94.97 20.72 95.51 20.72 95.7 20.71 95.6 20.88 95.34 21.35 95.75 21.68 95.9 21.8 95.72 21.87 95.22 22.06 95.32 22.58 95.36 22.77 95.18 22.71 94.67 22.53 94.41 23 94.32 23.16 94.31 23.14 94.31 23.14"/>
  <polygon class="cls-2" points="106.5 21.29 107.41 26.46 107.63 26.42 106.67 21 106.86 20.69 107.35 20.88 107.53 20.95 107.5 20.76 107.42 20.23 107.92 20.06 108.1 19.99 107.95 19.87 107.55 19.52 107.82 19.06 107.92 18.9 107.73 18.89 107.2 18.89 107.11 18.36 107.08 18.17 106.93 18.29 106.52 18.63 106.11 18.29 105.97 18.16 105.93 18.35 105.83 18.87 105.3 18.87 105.11 18.87 105.2 19.03 105.46 19.5 105.05 19.83 104.9 19.96 105.08 20.02 105.58 20.21 105.48 20.73 105.45 20.92 105.63 20.86 106.13 20.68 106.39 21.15 106.49 21.32 106.5 21.29 106.5 21.29"/>
  <polygon class="cls-2" points="109.51 33.91 108.15 37.86 108.32 37.92 109.75 33.78 109.99 33.63 110.26 33.95 110.36 34.07 110.42 33.93 110.56 33.53 110.98 33.6 111.13 33.62 111.07 33.48 110.93 33.08 111.29 32.87 111.43 32.79 111.29 32.71 110.92 32.51 111.07 32.11 111.12 31.96 110.97 31.99 110.55 32.07 110.4 31.67 110.35 31.52 110.25 31.64 109.98 31.97 109.61 31.76 109.48 31.68 109.48 31.84 109.48 32.26 109.06 32.34 108.91 32.36 109.01 32.48 109.29 32.8 109.02 33.13 108.92 33.25 109.07 33.27 109.49 33.35 109.49 33.77 109.49 33.92 109.51 33.91 109.51 33.91"/>
  <g>
    <path class="cls-6" d="M55.06,110.01c-.09.07-.19.13-.3.18-.11.05-.22.09-.35.12-.13.03-.26.04-.42.04-.24,0-.46-.04-.66-.13-.2-.09-.38-.21-.52-.36-.15-.15-.26-.33-.35-.53-.08-.2-.13-.42-.13-.66s.04-.45.12-.66c.08-.2.2-.38.35-.54s.33-.27.53-.36.43-.13.68-.13c.15,0,.28.01.41.04s.23.06.34.1c.1.05.2.1.28.16.09.06.17.13.25.2l-.37.42c-.13-.12-.27-.22-.41-.29s-.31-.11-.5-.11c-.16,0-.3.03-.43.09-.13.06-.25.14-.34.25-.1.1-.17.23-.22.36-.05.14-.08.29-.08.45s.03.31.08.45c.05.14.13.26.22.37.1.11.21.19.34.25.13.06.28.09.43.09.2,0,.37-.04.51-.11.14-.08.28-.18.42-.31l.37.37c-.08.09-.17.17-.26.24Z"/>
    <path class="cls-6" d="M59.9,109.31c-.08.2-.2.38-.35.54-.15.15-.33.28-.54.37-.21.09-.44.13-.69.13s-.48-.04-.69-.13c-.21-.09-.39-.21-.53-.36-.15-.15-.27-.33-.35-.53-.08-.2-.13-.42-.13-.65s.04-.45.13-.65c.08-.2.2-.38.35-.54s.33-.27.54-.36c.21-.09.44-.13.69-.13s.48.04.69.13.39.21.53.36c.15.15.27.33.35.53s.13.42.13.65-.04.45-.13.65ZM59.34,108.22c-.05-.14-.13-.26-.23-.37s-.21-.19-.35-.25c-.14-.06-.29-.09-.45-.09s-.31.03-.44.09c-.13.06-.25.14-.35.25-.1.1-.17.23-.23.37-.05.14-.08.29-.08.45s.03.31.08.45c.05.14.13.26.23.37.1.11.21.19.35.25.14.06.29.09.45.09s.31-.03.44-.09c.13-.06.25-.14.35-.25.1-.1.17-.23.23-.37.05-.14.08-.29.08-.45s-.03-.31-.08-.45Z"/>
    <path class="cls-6" d="M63.25,109.49h-.02l-1.02-1.53v2.32h-.57v-3.25h.61l.99,1.54.99-1.54h.61v3.25h-.57v-2.33l-1.03,1.53Z"/>
    <path class="cls-6" d="M67.21,107.04v3.25h-.57v-3.25h.57Z"/>
    <path class="cls-6" d="M69.52,108.05s.06.09.12.13c.06.04.14.08.24.11s.23.07.38.11c.17.04.32.09.45.14.13.05.24.12.33.19.09.08.15.16.2.27s.07.22.07.36c0,.16-.03.29-.09.41-.06.12-.14.22-.24.31-.1.08-.22.15-.37.19-.14.04-.3.07-.47.07-.25,0-.49-.04-.72-.13-.23-.09-.44-.22-.64-.39l.34-.41c.16.14.32.24.48.31.16.07.34.11.55.11.18,0,.32-.04.42-.11.1-.07.16-.18.16-.3,0-.06-.01-.11-.03-.16s-.06-.09-.11-.13c-.05-.04-.13-.08-.22-.11-.09-.03-.22-.07-.37-.11-.17-.04-.33-.09-.46-.13-.14-.05-.25-.11-.34-.19-.09-.07-.16-.16-.21-.27-.05-.11-.07-.23-.07-.39,0-.14.03-.27.08-.39.06-.12.13-.22.23-.3s.21-.15.35-.19c.14-.04.28-.07.45-.07.24,0,.45.03.64.1.19.07.37.17.54.3l-.31.43c-.15-.11-.3-.19-.44-.25-.15-.06-.29-.09-.44-.09-.17,0-.3.04-.39.11-.09.08-.14.17-.14.28,0,.07.01.12.03.17Z"/>
    <path class="cls-6" d="M73.38,108.05s.06.09.12.13c.06.04.14.08.24.11s.23.07.38.11c.17.04.32.09.45.14.13.05.24.12.33.19.09.08.15.16.2.27s.07.22.07.36c0,.16-.03.29-.09.41-.06.12-.14.22-.24.31-.1.08-.22.15-.37.19-.14.04-.3.07-.47.07-.25,0-.49-.04-.72-.13-.23-.09-.44-.22-.64-.39l.34-.41c.16.14.32.24.48.31.16.07.34.11.55.11.18,0,.32-.04.42-.11.1-.07.16-.18.16-.3,0-.06-.01-.11-.03-.16s-.06-.09-.11-.13c-.05-.04-.13-.08-.22-.11-.09-.03-.22-.07-.37-.11-.17-.04-.33-.09-.46-.13-.14-.05-.25-.11-.34-.19-.09-.07-.16-.16-.21-.27-.05-.11-.07-.23-.07-.39,0-.14.03-.27.08-.39.06-.12.13-.22.23-.3s.21-.15.35-.19c.14-.04.28-.07.45-.07.24,0,.45.03.64.1.19.07.37.17.54.3l-.31.43c-.15-.11-.3-.19-.44-.25-.15-.06-.29-.09-.44-.09-.17,0-.3.04-.39.11-.09.08-.14.17-.14.28,0,.07.01.12.03.17Z"/>
    <path class="cls-6" d="M79.89,110.29h-.6l-.33-.79h-1.54l-.33.79h-.59l1.43-3.28h.53l1.43,3.28ZM78.88,106.62c-.08.1-.19.15-.33.15-.07,0-.13,0-.19-.03s-.12-.04-.18-.06c-.06-.02-.11-.04-.16-.07s-.1-.03-.14-.03c-.07,0-.12.02-.15.06-.03.04-.07.1-.1.18l-.31-.09c.05-.19.12-.33.19-.43.08-.1.19-.15.33-.15.07,0,.13.01.19.03.06.02.12.04.18.07.06.02.11.04.16.06s.1.03.14.03c.07,0,.12-.02.15-.06.03-.04.07-.1.1-.18l.31.1c-.05.19-.12.33-.19.43ZM78.19,107.7l-.56,1.3h1.12l-.56-1.3Z"/>
    <path class="cls-6" d="M84.51,109.31c-.08.2-.2.38-.35.54-.15.15-.33.28-.54.37-.21.09-.44.13-.69.13s-.48-.04-.69-.13c-.21-.09-.39-.21-.53-.36-.15-.15-.27-.33-.35-.53-.08-.2-.13-.42-.13-.65s.04-.45.13-.65c.08-.2.2-.38.35-.54s.33-.27.54-.36c.21-.09.44-.13.69-.13s.48.04.69.13.39.21.53.36c.15.15.27.33.35.53s.13.42.13.65-.04.45-.13.65ZM83.96,108.22c-.05-.14-.13-.26-.23-.37s-.21-.19-.35-.25c-.14-.06-.29-.09-.45-.09s-.31.03-.44.09c-.13.06-.25.14-.35.25-.1.1-.17.23-.23.37-.05.14-.08.29-.08.45s.03.31.08.45c.05.14.13.26.23.37.1.11.21.19.35.25.14.06.29.09.45.09s.31-.03.44-.09c.13-.06.25-.14.35-.25.1-.1.17-.23.23-.37.05-.14.08-.29.08-.45s-.03-.31-.08-.45Z"/>
    <path class="cls-6" d="M91.41,109.3c-.08.2-.2.37-.36.52-.15.15-.34.26-.55.34-.21.08-.45.13-.7.13h-1.21v-3.25h1.21c.25,0,.49.04.7.12.21.08.4.2.55.34.15.15.27.32.36.52.08.2.13.41.13.64s-.04.44-.13.64ZM90.85,108.22c-.05-.14-.13-.25-.23-.35-.1-.1-.22-.18-.36-.23-.14-.06-.3-.08-.47-.08h-.64v2.22h.64c.17,0,.33-.03.47-.08.14-.05.26-.13.36-.23.1-.1.17-.21.23-.35.05-.14.08-.28.08-.45s-.03-.31-.08-.45Z"/>
    <path class="cls-6" d="M95.56,107.55h-1.84v.84h1.63v.52h-1.63v.87h1.86v.52h-2.43v-3.25h2.41v.52Z"/>
    <path class="cls-6" d="M101.94,107.55h-1.85v.9h1.64v.52h-1.64v1.33h-.57v-3.25h2.42v.52Z"/>
    <path class="cls-6" d="M105.91,107.55h-1.84v.84h1.63v.52h-1.63v.87h1.86v.52h-2.43v-3.25h2.41v.52Z"/>
    <path class="cls-6" d="M108.06,108.05s.06.09.12.13c.06.04.14.08.24.11s.23.07.38.11c.17.04.32.09.45.14.13.05.24.12.33.19.09.08.15.16.2.27s.07.22.07.36c0,.16-.03.29-.09.41-.06.12-.14.22-.24.31-.1.08-.22.15-.37.19-.14.04-.3.07-.47.07-.25,0-.49-.04-.72-.13-.23-.09-.44-.22-.64-.39l.34-.41c.16.14.32.24.48.31.16.07.34.11.55.11.18,0,.32-.04.42-.11.1-.07.16-.18.16-.3,0-.06-.01-.11-.03-.16s-.06-.09-.11-.13c-.05-.04-.13-.08-.22-.11-.09-.03-.22-.07-.37-.11-.17-.04-.33-.09-.46-.13-.14-.05-.25-.11-.34-.19-.09-.07-.16-.16-.21-.27-.05-.11-.07-.23-.07-.39,0-.14.03-.27.08-.39.06-.12.13-.22.23-.3s.21-.15.35-.19c.14-.04.28-.07.45-.07.24,0,.45.03.64.1.19.07.37.17.54.3l-.31.43c-.15-.11-.3-.19-.44-.25-.15-.06-.29-.09-.44-.09-.17,0-.3.04-.39.11-.09.08-.14.17-.14.28,0,.07.01.12.03.17Z"/>
    <path class="cls-6" d="M112.76,110.29h-.58v-2.72h-1.03v-.53h2.64v.53h-1.03v2.72Z"/>
    <path class="cls-6" d="M118.02,110.29h-.6l-.33-.79h-1.54l-.33.79h-.59l1.43-3.28h.53l1.43,3.28ZM116.32,107.7l-.56,1.3h1.12l-.56-1.3Z"/>
    <path class="cls-6" d="M119.97,108.05s.06.09.12.13c.06.04.14.08.24.11s.23.07.38.11c.17.04.32.09.45.14.13.05.24.12.33.19.09.08.15.16.2.27s.07.22.07.36c0,.16-.03.29-.09.41-.06.12-.14.22-.24.31-.1.08-.22.15-.37.19-.14.04-.3.07-.47.07-.25,0-.49-.04-.72-.13-.23-.09-.44-.22-.64-.39l.34-.41c.16.14.32.24.48.31.16.07.34.11.55.11.18,0,.32-.04.42-.11.1-.07.16-.18.16-.3,0-.06-.01-.11-.03-.16s-.06-.09-.11-.13c-.05-.04-.13-.08-.22-.11-.09-.03-.22-.07-.37-.11-.17-.04-.33-.09-.46-.13-.14-.05-.25-.11-.34-.19-.09-.07-.16-.16-.21-.27-.05-.11-.07-.23-.07-.39,0-.14.03-.27.08-.39.06-.12.13-.22.23-.3s.21-.15.35-.19c.14-.04.28-.07.45-.07.24,0,.45.03.64.1.19.07.37.17.54.3l-.31.43c-.15-.11-.3-.19-.44-.25-.15-.06-.29-.09-.44-.09-.17,0-.3.04-.39.11-.09.08-.14.17-.14.28,0,.07.01.12.03.17Z"/>
    <path class="cls-6" d="M125.82,110.89v-4.31h.45v4.31h-.45Z"/>
    <path class="cls-6" d="M132.89,107.55h-1.84v.84h1.63v.52h-1.63v.87h1.86v.52h-2.43v-3.25h2.41v.52Z"/>
    <path class="cls-6" d="M135.04,108.05s.06.09.12.13c.06.04.14.08.24.11s.23.07.38.11c.17.04.32.09.45.14.13.05.24.12.33.19.09.08.15.16.2.27s.07.22.07.36c0,.16-.03.29-.09.41-.06.12-.14.22-.24.31-.1.08-.22.15-.37.19-.14.04-.3.07-.47.07-.25,0-.49-.04-.72-.13-.23-.09-.44-.22-.64-.39l.34-.41c.16.14.32.24.48.31.16.07.34.11.55.11.18,0,.32-.04.42-.11.1-.07.16-.18.16-.3,0-.06-.01-.11-.03-.16s-.06-.09-.11-.13c-.05-.04-.13-.08-.22-.11-.09-.03-.22-.07-.37-.11-.17-.04-.33-.09-.46-.13-.14-.05-.25-.11-.34-.19-.09-.07-.16-.16-.21-.27-.05-.11-.07-.23-.07-.39,0-.14.03-.27.08-.39.06-.12.13-.22.23-.3s.21-.15.35-.19c.14-.04.28-.07.45-.07.24,0,.45.03.64.1.19.07.37.17.54.3l-.31.43c-.15-.11-.3-.19-.44-.25-.15-.06-.29-.09-.44-.09-.17,0-.3.04-.39.11-.09.08-.14.17-.14.28,0,.07.01.12.03.17Z"/>
    <path class="cls-6" d="M139.74,110.29h-.58v-2.72h-1.03v-.53h2.64v.53h-1.03v2.72Z"/>
    <path class="cls-6" d="M144.72,107.55h-1.84v.84h1.63v.52h-1.63v.87h1.86v.52h-2.43v-3.25h2.41v.52Z"/>
  </g>
</svg>