<?xml version="1.0" encoding="UTF-8"?>
<svg id="Camada_1" data-name="Camada 1" xmlns="http://www.w3.org/2000/svg" viewBox="0 0 396.39 195.89">
  <defs>
    <style>
      .cls-1 {
        fill: #fff;
      }

      .cls-2 {
        fill: #c1cf4e;
      }
    </style>
  </defs>
  <path class="cls-2" d="M159.15,37.9l-74.09,3.83-66.19-.36-2.21,8.64,4.25,33.67,59.83-6.77,78.1.12,4.57-15.06-4.27-24.06Z"/>
  <g>
    <path class="cls-1" d="M49.55,51.47h-17.89v-4.17h23.16v4.17s-14.07,4.35-14.07,21.08h-5.36c0-9.28,8.71-20.42,14.17-21.08Z"/>
    <path class="cls-1" d="M61.22,57.85h28.82v4.17h-28.82v-4.17Z"/>
    <path class="cls-1" d="M98.98,58.16v-5.18c11.11,0,14.52-5.68,14.52-5.68h4.42v25.24h-4.42v-21.96c-.41,4.45-6.44,7.57-14.52,7.57Z"/>
    <path class="cls-1" d="M132.65,71.32c-1.96.76-4.07.38-5.59-1.14-1.29-1.29-1.8-3.28-1.26-5.05.03-.19.09-.35.16-.5l-.47-.25c-1.64-.88-2.68-2.62-2.68-4.48s1.04-3.63,2.68-4.51c.16-.09.32-.16.47-.22-.06-.19-.13-.35-.16-.5-.54-1.77-.06-3.75,1.26-5.08,1.61-1.55,3.79-1.8,5.55-1.14l.19-.35c.82-1.55,2.43-2.68,4.45-2.68,1.86,0,3.44.92,4.39,2.52.13.19.22.38.32.57,1.86-.73,4.07-.54,5.74,1.07,1.33,1.33,1.8,3.31,1.26,5.08-.03.16-.09.32-.16.5.16.06.32.13.47.22,1.64.88,2.68,2.65,2.68,4.51s-1.04,3.6-2.68,4.48l-.47.25c.06.16.13.32.16.5.54,1.77.03,3.75-1.26,5.05-1.58,1.58-3.72,1.86-5.59,1.14-.06.16-.16.32-.25.47-.95,1.7-2.52,2.65-4.48,2.65-2.34,0-4.1-1.55-4.73-3.12ZM131.01,62.52c.66,1.61-2.27,3.57-1.04,4.8.22.22.44.28.69.28,1.04,0,2.4-1.45,3.57-1.45.19,0,.35.03.5.09,1.61.66.92,4.13,2.65,4.13s1.04-3.47,2.65-4.13c.16-.06.32-.09.5-.09,1.17,0,2.52,1.45,3.57,1.45.25,0,.47-.06.69-.28,1.23-1.23-1.7-3.19-1.04-4.8.66-1.58,4.1-.92,4.1-2.62s-3.44-1.04-4.1-2.65c-.66-1.58,2.27-3.57,1.04-4.76-.22-.22-.44-.32-.69-.32-1.04,0-2.4,1.45-3.57,1.45-.19,0-.35-.03-.5-.09-1.61-.66-1.2-4.04-2.78-4.04-1.67,0-.92,3.38-2.52,4.04-.16.06-.32.09-.5.09-1.17,0-2.52-1.45-3.57-1.45-.25,0-.47.09-.69.32-1.23,1.2,1.7,3.19,1.04,4.76-.66,1.61-4.1.92-4.1,2.65s3.44,1.04,4.1,2.62Z"/>
  </g>
  <g>
    <path class="cls-1" d="M77.91,105.09c.98-1.67,2.21-3.12,3.63-4.39.28-.22.54-.41.79-.63.03-.63.13-1.33.22-2.05.38-2.24,1.04-4.42,1.99-6.47.95-2.08,2.18-3.82,3.63-5.55h5.02l11.36,25.24h-4.89l-9.62-21.17c-.69,1.01-1.29,2.05-1.8,3.16-.69,1.58-1.23,3.22-1.55,4.89.98-.19,1.92-.16,2.84.03,1.83.38,3.5,1.74,4.29,3.53.69,1.51.69,3.19-.06,4.54-.63,1.14-1.7,1.99-3.03,2.4-1.2.38-2.53.35-3.66-.09-1.67-.6-3.09-1.96-3.91-3.72-.63.73-1.2,1.51-1.7,2.33-.76,1.29-1.26,2.68-1.55,4.1h-4.26c.38-1.86,1.29-4.48,2.27-6.15ZM86.65,102.54c.32,1.04,1.01,1.89,1.8,2.18.63.22,1.45,0,1.7-.44.19-.32.06-.66-.03-.92-.28-.6-.88-1.1-1.45-1.23-.38-.06-1.07-.13-2.08.22.03.06.03.13.06.19Z"/>
    <path class="cls-1" d="M106.58,98.63c0-7.86,5.24-13.41,12.62-13.41s12.4,4.26,12.4,10.26h-4.58c0-3.53-3.25-6.06-7.83-6.06s-8.17,3.82-8.17,9.21,3.38,9.21,8.17,9.21c3.31,0,6.18-1.26,7.51-4.23h-7.2v-4.17h12.4c0,7.45-4.1,12.59-12.72,12.59-7.38,0-12.62-5.55-12.62-13.41Z"/>
    <path class="cls-1" d="M145.23,110.02c-1.96.76-4.07.38-5.59-1.14-1.29-1.29-1.8-3.28-1.26-5.05.03-.19.09-.35.16-.5l-.47-.25c-1.64-.88-2.68-2.62-2.68-4.48s1.04-3.63,2.68-4.51c.16-.09.32-.16.47-.22-.06-.19-.13-.35-.16-.5-.54-1.77-.06-3.75,1.26-5.08,1.61-1.55,3.79-1.8,5.55-1.14l.19-.35c.82-1.55,2.43-2.68,4.45-2.68,1.86,0,3.44.92,4.39,2.52.13.19.22.38.32.57,1.86-.73,4.07-.54,5.74,1.07,1.33,1.33,1.8,3.31,1.26,5.08-.03.16-.09.32-.16.5.16.06.32.13.47.22,1.64.88,2.68,2.65,2.68,4.51s-1.04,3.6-2.68,4.48l-.47.25c.06.16.13.32.16.5.54,1.77.03,3.75-1.26,5.05-1.58,1.58-3.72,1.86-5.59,1.14-.06.16-.16.32-.25.47-.95,1.7-2.52,2.65-4.48,2.65-2.34,0-4.1-1.55-4.73-3.12ZM143.59,101.21c.66,1.61-2.27,3.57-1.04,4.8.22.22.44.28.69.28,1.04,0,2.4-1.45,3.57-1.45.19,0,.35.03.5.09,1.61.66.92,4.13,2.65,4.13s1.04-3.47,2.65-4.13c.16-.06.32-.09.5-.09,1.17,0,2.52,1.45,3.57,1.45.25,0,.47-.06.69-.28,1.23-1.23-1.7-3.19-1.04-4.8.66-1.58,4.1-.92,4.1-2.62s-3.44-1.04-4.1-2.65c-.66-1.58,2.27-3.57,1.04-4.76-.22-.22-.44-.32-.69-.32-1.04,0-2.4,1.45-3.57,1.45-.19,0-.35-.03-.5-.09-1.61-.66-1.2-4.04-2.78-4.04-1.67,0-.92,3.38-2.52,4.04-.16.06-.32.09-.5.09-1.17,0-2.52-1.45-3.57-1.45-.25,0-.47.09-.69.32-1.23,1.2,1.7,3.19,1.04,4.76-.66,1.61-4.1.92-4.1,2.65s3.44,1.04,4.1,2.62Z"/>
    <path class="cls-1" d="M167.85,103.96h4.42c0,2.24,3.19,3.82,7.73,3.82s7.73-1.58,7.73-3.82c0-7.1-19.25.95-19.25-11.01,0-4.45,4.76-7.57,11.52-7.57,6.37,0,10.89,3.12,10.89,7.57h-4.42c0-2.02-2.68-3.47-6.47-3.47-4.17,0-7.1,1.45-7.1,3.47,0,6.97,19.25-.82,19.25,11.01,0,4.64-5.02,7.92-12.15,7.92s-12.15-3.28-12.15-7.92Z"/>
    <path class="cls-1" d="M203.09,90.17h-9.06v-4.17h22.53v4.17h-9.06v21.08h-4.42v-21.08Z"/>
    <path class="cls-1" d="M228.46,110.02c-1.96.76-4.07.38-5.59-1.14-1.29-1.29-1.8-3.28-1.26-5.05.03-.19.09-.35.16-.5l-.47-.25c-1.64-.88-2.68-2.62-2.68-4.48s1.04-3.63,2.68-4.51c.16-.09.32-.16.47-.22-.06-.19-.13-.35-.16-.5-.54-1.77-.06-3.75,1.26-5.08,1.61-1.55,3.79-1.8,5.55-1.14l.19-.35c.82-1.55,2.43-2.68,4.45-2.68,1.86,0,3.44.92,4.39,2.52.13.19.22.38.32.57,1.86-.73,4.07-.54,5.74,1.07,1.33,1.33,1.8,3.31,1.26,5.08-.03.16-.09.32-.16.5.16.06.32.13.47.22,1.64.88,2.68,2.65,2.68,4.51s-1.04,3.6-2.68,4.48l-.47.25c.06.16.13.32.16.5.54,1.77.03,3.75-1.26,5.05-1.58,1.58-3.72,1.86-5.59,1.14-.06.16-.16.32-.25.47-.95,1.7-2.52,2.65-4.48,2.65-2.34,0-4.1-1.55-4.73-3.12ZM226.82,101.21c.66,1.61-2.27,3.57-1.04,4.8.22.22.44.28.69.28,1.04,0,2.4-1.45,3.57-1.45.19,0,.35.03.5.09,1.61.66.92,4.13,2.65,4.13s1.04-3.47,2.65-4.13c.16-.06.32-.09.5-.09,1.17,0,2.52,1.45,3.57,1.45.25,0,.47-.06.69-.28,1.23-1.23-1.7-3.19-1.04-4.8.66-1.58,4.1-.92,4.1-2.62s-3.44-1.04-4.1-2.65c-.66-1.58,2.27-3.57,1.04-4.76-.22-.22-.44-.32-.69-.32-1.04,0-2.4,1.45-3.57,1.45-.19,0-.35-.03-.5-.09-1.61-.66-1.2-4.04-2.78-4.04-1.67,0-.92,3.38-2.52,4.04-.16.06-.32.09-.5.09-1.17,0-2.52-1.45-3.57-1.45-.25,0-.47.09-.69.32-1.23,1.2,1.7,3.19,1.04,4.76-.66,1.61-4.1.92-4.1,2.65s3.44,1.04,4.1,2.62Z"/>
  </g>
  <g>
    <path class="cls-2" d="M297.36,110.9c-2.06.8-4.28.4-5.87-1.19-1.36-1.36-1.89-3.45-1.33-5.31.03-.2.1-.37.17-.53l-.5-.27c-1.73-.93-2.82-2.75-2.82-4.71s1.1-3.82,2.82-4.75c.17-.1.33-.17.5-.23-.07-.2-.13-.37-.17-.53-.56-1.86-.07-3.95,1.33-5.34,1.69-1.63,3.98-1.89,5.84-1.19l.2-.37c.86-1.63,2.56-2.82,4.68-2.82,1.96,0,3.62.96,4.61,2.65.13.2.23.4.33.6,1.96-.76,4.28-.56,6.04,1.13,1.39,1.39,1.89,3.48,1.33,5.34-.03.17-.1.33-.17.53.17.07.33.13.5.23,1.73.93,2.82,2.79,2.82,4.75s-1.1,3.78-2.82,4.71l-.5.27c.07.17.13.33.17.53.56,1.86.03,3.95-1.33,5.31-1.66,1.66-3.92,1.96-5.87,1.19-.07.17-.17.33-.27.5-1,1.79-2.65,2.79-4.71,2.79-2.46,0-4.31-1.63-4.98-3.29ZM295.64,101.64c.7,1.69-2.39,3.75-1.09,5.04.23.23.46.3.73.3,1.09,0,2.52-1.53,3.75-1.53.2,0,.37.03.53.1,1.69.7.96,4.35,2.79,4.35s1.09-3.65,2.79-4.35c.17-.07.33-.1.53-.1,1.23,0,2.65,1.53,3.75,1.53.27,0,.5-.07.73-.3,1.29-1.29-1.79-3.35-1.1-5.04.7-1.66,4.31-.96,4.31-2.75s-3.62-1.1-4.31-2.79c-.7-1.66,2.39-3.75,1.1-5.01-.23-.23-.46-.33-.73-.33-1.1,0-2.52,1.53-3.75,1.53-.2,0-.37-.03-.53-.1-1.69-.7-1.26-4.25-2.92-4.25-1.76,0-.96,3.55-2.65,4.25-.17.07-.33.1-.53.1-1.23,0-2.65-1.53-3.75-1.53-.27,0-.5.1-.73.33-1.29,1.26,1.79,3.35,1.09,5.01-.7,1.69-4.31.96-4.31,2.79s3.62,1.1,4.31,2.75Z"/>
    <path class="cls-2" d="M347.24,100.75c0-9.39,1.03-15.6,12.98-15.6,6.44,0,11.02,3.29,11.02,7.96h-4.65c0-2.12-2.65-3.65-6.37-3.65-6.8,0-7.87,2.82-8.1,8.06,1.63-2.56,5.21-4.28,9.09-4.28,6.31,0,10.79,3.92,10.79,9.49,0,6.14-5.14,10.45-12.44,10.45-6.87,0-12.31-4.31-12.31-12.44ZM359.56,108.88c4.58,0,7.8-2.56,7.8-6.14,0-2.99-2.95-5.11-7.14-5.11-4.41,0-7.77,2.12-8.13,5.11,0,3.58,3.09,6.14,7.47,6.14Z"/>
    <path class="cls-2" d="M279.46,112.88l-.83-1.94c-.32-.76-.97-2.04-2.04-3.33-.46.4-.98.81-1.57,1.21-3.58,2.48-8.66,4.99-12.5,2.86-1.53-.85-2.73-2.43-3.21-4.23-.45-1.67-.24-3.34.58-4.69,1.41-2.34,4.2-2.98,5.4-3.26,3.54-.81,6.52.21,7.63.59,1.25.43,2.36.99,3.34,1.62.92-1.21,1.97-2.77,2.16-4.63.21-2.01-.47-6.22-4.56-7.72-3.41-1.25-7.66-.15-10.09,2.62l-1.39,1.58-3.17-2.78,1.39-1.58c3.6-4.09,9.65-5.65,14.72-3.79,5.67,2.08,7.76,7.74,7.3,12.12-.32,3.1-2.01,5.46-3.16,6.96,1.65,1.85,2.6,3.73,3.06,4.81l.83,1.94-3.88,1.65ZM268.02,103.41c-.56,0-1.16.06-1.78.2-.74.17-2.25.52-2.74,1.33-.22.36-.26.88-.11,1.43.19.7.64,1.32,1.18,1.63,1.45.81,4.54-.21,8.05-2.64.24-.17.46-.33.67-.5-.54-.3-1.12-.56-1.75-.78-.65-.22-1.95-.67-3.53-.67Z"/>
    <path class="cls-2" d="M338.04,113.05l-.83-1.94c-.32-.76-.97-2.04-2.04-3.33-.46.4-.98.81-1.57,1.21-3.58,2.48-8.66,4.99-12.5,2.86-1.53-.85-2.73-2.43-3.21-4.23-.45-1.67-.24-3.34.58-4.69,1.41-2.34,4.2-2.98,5.4-3.26,3.54-.82,6.52.21,7.64.59,1.25.43,2.36.99,3.34,1.62.92-1.21,1.97-2.77,2.16-4.63.21-2.01-.47-6.22-4.56-7.72-3.42-1.25-7.66-.15-10.09,2.62l-1.39,1.58-3.17-2.78,1.39-1.58c3.6-4.09,9.65-5.65,14.72-3.79,5.67,2.08,7.76,7.74,7.3,12.12-.32,3.1-2.01,5.46-3.16,6.96,1.65,1.85,2.6,3.73,3.06,4.81l.83,1.94-3.88,1.65ZM326.59,103.58c-.56,0-1.16.06-1.78.2-.74.17-2.25.52-2.74,1.33-.22.36-.26.88-.11,1.43.19.7.64,1.32,1.18,1.63,1.45.8,4.54-.21,8.05-2.64.24-.17.46-.33.67-.5-.54-.3-1.12-.56-1.75-.78-.65-.22-1.95-.67-3.53-.67Z"/>
  </g>
</svg>